<svg width="9" height="9" viewBox="0 0 9 9" fill="none" xmlns="http://www.w3.org/2000/svg">
    <path d="M8.35794 3.43653L8.35794 3.43481C8.35906 2.89295 8.15086 2.37194 7.77739 1.98105C7.40558 1.59396 6.90214 1.37829 6.37793 1.37815C6.11639 1.37891 5.85766 1.43256 5.6172 1.53595C5.37659 1.63941 5.15919 1.79055 4.97807 1.98037L4.9766 1.98191L4.97659 1.98191L4.86582 2.09677C4.79052 2.17486 4.68674 2.21901 4.57827 2.21911C4.4698 2.21921 4.36593 2.17526 4.29049 2.09732L4.1793 1.98245L4.17669 1.97975L4.1767 1.97974C3.99615 1.78968 3.77908 1.63845 3.53865 1.53513C3.29824 1.43182 3.03945 1.37857 2.77796 1.37857C2.51648 1.37857 2.25769 1.43182 2.01728 1.53513C1.77685 1.63845 1.55977 1.78968 1.37923 1.97974L1.37747 1.98158C0.604816 2.7846 0.604724 4.08663 1.37751 4.89015L8.35794 3.43653ZM8.35794 3.43653C8.35915 3.97831 8.15111 4.49928 7.7778 4.89023C7.43245 5.24936 7.09412 5.60977 6.75748 5.96837C6.08636 6.68328 5.42197 7.39102 4.72207 8.06727C4.63826 8.14588 4.50576 8.14222 4.42685 8.06032C4.42683 8.06029 4.4268 8.06027 4.42678 8.06024L1.37753 4.89017L8.35794 3.43653Z" stroke="#0085FF" stroke-width="0.8" stroke-linejoin="round"/>
</svg>
