<svg width="26" height="25" viewBox="0 0 26 25" fill="none" xmlns="http://www.w3.org/2000/svg">
    <path d="M22.9609 9.53642C22.9642 10.9897 22.401 12.3877 21.3896 13.437C19.0706 15.8275 16.821 18.3199 14.4165 20.6225C13.8646 21.1419 12.9896 21.123 12.4624 20.58L5.53202 13.438C3.43724 11.2789 3.43724 7.79389 5.53202 5.6358C6.02711 5.11918 6.62257 4.70789 7.28231 4.42687C7.94205 4.14585 8.65232 4.00094 9.37006 4.00094C10.0878 4.00094 10.7981 4.14585 11.4578 4.42687C12.1176 4.70789 12.713 5.11918 13.2081 5.6358L13.4608 5.89458L13.7126 5.6358C14.2087 5.12041 14.8043 4.70987 15.4638 4.42879C16.1233 4.14771 16.8331 4.00186 17.5506 4C18.9946 4 20.375 4.58934 21.3887 5.6358C22.4004 6.68495 22.9639 8.083 22.9609 9.53642V9.53642Z" stroke="#252B5C" stroke-width="1.67" stroke-linejoin="round"/>
</svg>
