<svg id="Layer_1" data-name="Layer 1" xmlns="http://www.w3.org/2000/svg" xmlns:xlink="http://www.w3.org/1999/xlink" viewBox="0 0 1448 1788"><defs><style>.cls-1{fill:#224e6d;}.cls-2{fill:url(#linear-gradient);}.cls-3{fill:url(#linear-gradient-2);}.cls-4{fill:url(#linear-gradient-3);}.cls-5{fill:url(#linear-gradient-4);}.cls-6{fill:url(#linear-gradient-5);}.cls-7{fill:url(#linear-gradient-6);}.cls-8{fill:url(#linear-gradient-7);}</style><linearGradient id="linear-gradient" x1="662.07" y1="644.97" x2="662.07" y2="870.07" gradientUnits="userSpaceOnUse"><stop offset="0.01" stop-color="#6ea4d9"/><stop offset="0.75" stop-color="#72b0e1"/><stop offset="1" stop-color="#5f83c2"/></linearGradient><linearGradient id="linear-gradient-2" x1="706.22" y1="517.28" x2="706.22" y2="777.33" xlink:href="#linear-gradient"/><linearGradient id="linear-gradient-3" x1="158.46" y1="408.08" x2="1184.46" y2="408.08" gradientUnits="userSpaceOnUse"><stop offset="0.01" stop-color="#546bb1"/><stop offset="0.53" stop-color="#546bb1"/><stop offset="1" stop-color="#678dc9"/></linearGradient><linearGradient id="linear-gradient-4" x1="560.76" y1="402.78" x2="629.02" y2="402.78" xlink:href="#linear-gradient-3"/><linearGradient id="linear-gradient-5" x1="637.6" y1="402.83" x2="705.9" y2="402.83" xlink:href="#linear-gradient-3"/><linearGradient id="linear-gradient-6" x1="560.73" y1="477.72" x2="629.2" y2="477.72" xlink:href="#linear-gradient-3"/><linearGradient id="linear-gradient-7" x1="637.62" y1="477.65" x2="705.88" y2="477.65" xlink:href="#linear-gradient-3"/></defs><title>ببببب</title><path class="cls-1" d="M543,1141.25c7.5-18.25,21.13-27.58,40.54-27.59s33.46,8.37,40,27.18c1.17.26,1.44-.37,1.68-1,6.58-16.79,24.57-27.52,46.33-26.11,26.93,1.74,42.69,19.4,42.94,48.33.27,31.64,0,63.28.14,94.92,0,3.44-1.18,4.1-4.3,4-10.65-.17-21.31-.22-32,0-3.6.09-4.37-1-4.36-4.48.14-27.47.09-54.95.06-82.43a54.52,54.52,0,0,0-.39-9c-2-11.82-10.5-18.42-23.06-18.16-11.48.23-20.29,8-21.58,19.5a135.64,135.64,0,0,0-.5,15c0,25-.11,50,.07,74.94,0,3.8-1,4.74-4.73,4.64-10-.27-20-.34-30,0-4.23.15-4.79-1.43-4.77-5.1q.2-42.71,0-85.43c0-11.69-5.31-19.66-14.56-22.51-14.82-4.57-29.5,5.35-30.51,21.2-.67,10.45-.3,21-.32,31.46,0,18.65-.1,37.3.08,56,0,3.56-1,4.46-4.48,4.39q-16.23-.32-32.47,0c-3.18.07-3.83-1-3.82-4q.13-68.94,0-137.88c0-3.12.95-3.94,4-3.89q15.48.24,31,0c3.16,0,4,1.06,3.88,4-.18,7.11-.06,14.22-.06,21.34Z"/><path class="cls-1" d="M219.36,1585.76c-14.22,0-28.19-.08-42.17.07-2.71,0-3.25-1.74-4.17-3.45-10.89-20.37-21.85-40.7-32.58-61.15-1.7-3.23-3.52-4.54-7.23-4.35-6.81.34-13.66.28-20.47,0-3.46-.14-4.5.79-4.47,4.36.18,20,0,40,.18,60,0,3.75-.9,4.75-4.65,4.66-10.82-.28-21.65-.17-32.47,0-2.75,0-4.1-.25-4.09-3.66q.17-93.42,0-186.84c0-3,1.06-3.5,3.72-3.49,26.31.11,52.64-.54,78.92.32,23.44.77,44,8.87,55.64,30.92,10.61,20,10.52,40.93,1.35,61.55-4.75,10.7-13,18.55-23.5,23.57-4,1.93-3.79,3.46-1.92,6.84,12.09,21.8,24,43.71,35.91,65.6C218.15,1582,219.34,1583.3,219.36,1585.76Zm-111-131.33c0,8.65,0,17.31,0,26,0,2.27.12,3.67,3.09,3.61,10.15-.22,20.32.23,30.44-.32,9.49-.5,18.52-2.94,24.4-11.41,11.91-17.14,2.51-41.24-17.87-45.47-12.49-2.59-25.21-.86-37.83-1.28-2.78-.09-2.17,1.91-2.18,3.44C108.34,1437.45,108.36,1445.94,108.36,1454.43Z"/><path class="cls-1" d="M353.64,1200c5.66,0,11.32,0,17,0,1.56,0,3-.07,3.24,2.07,2.16,17.11,13.68,24.19,29.13,26.51,8.94,1.34,17.92.91,26.53-2.48a30.53,30.53,0,0,0,9-5.28c10.49-9.13,9.34-23.88-2.53-31.09-8.65-5.26-18.51-7.22-28.14-9.71-13.81-3.56-27.91-6.22-40.69-13-13.1-7-23.57-16.21-26.94-31.49-5.15-23.32,3.59-44.91,23.68-58,17-11.06,36-14.18,55.84-13,16.45,1,31.77,5.47,44.76,16.07,11.92,9.74,18.48,22.38,19.78,37.79.29,3.34-.28,4.71-4.05,4.61-10.49-.25-21-.08-31.47-.09-1.75,0-3.43.46-4-2.33-2.5-13.15-11.62-19.3-23.95-21.16-8.93-1.34-17.94-1.24-26.49,2.51-7.53,3.31-12.54,8.54-13.24,17.17-.74,9.14,4.31,14.65,11.67,18.59,10.86,5.8,23,7.38,34.75,10.3,10.34,2.58,20.56,5.48,30,10.56,19.74,10.65,30.56,26.72,29.51,49.68-1,22-11.82,38.13-31.84,46.76-29.39,12.67-59.42,12.38-88.54-.77-21.14-9.55-31.25-27.42-32.65-50.43-.19-3.07.5-4.08,3.67-3.92C343,1200.23,348.31,1200,353.64,1200Z"/><path class="cls-1" d="M634.32,1488.87c0-30.8.07-61.6-.08-92.4,0-3.74.92-4.71,4.69-4.69q60.68.21,121.35,0c3.48,0,5,.48,4.81,4.5-.36,8.31-.32,16.65,0,25,.14,3.83-1.05,4.66-4.73,4.64-26.63-.16-53.27,0-79.9-.18-3.91,0-5,1-4.93,4.91.27,12.15.29,24.31,0,36.46-.1,4.13,1.31,4.84,5,4.81,24.14-.15,48.28.07,72.42-.2,4.78-.06,5.79,1.45,5.59,5.83a225.43,225.43,0,0,0,0,23c.27,4.65-1.4,5.4-5.61,5.37-24-.2-47.94,0-71.91-.19-4.12,0-5.75.59-5.59,5.29.41,11.81.32,23.64,0,35.46-.1,4.18.7,5.59,5.32,5.54,26.46-.26,52.93,0,79.4-.25,4.53,0,5.59,1.2,5.41,5.53-.36,8.31-.22,16.65,0,25,.06,2.88-.91,3.62-3.7,3.61q-61.93-.11-123.86,0c-3.9,0-3.75-1.88-3.74-4.57Q634.36,1535.08,634.32,1488.87Z"/><path class="cls-1" d="M1102.86,1565.18c-16.44,21.48-36.59,28.11-61.33,20.93-20.77-6-32.07-22.38-30.39-44,1.6-20.46,12.55-32.73,33.89-38.31,13-3.39,26.3-3.83,39.43-5.9,1.64-.26,3.29-.48,4.9-.87,4.68-1.15,10.07-1.86,11.1-7.68,1.21-6.76-.49-13-6.31-17.34-11.46-8.65-32.8-3.81-39,9.08-1.44,3-2.83,3.67-6,3.32-9.42-1-18.88-1.9-28.34-2.4-3.9-.21-4.73-1-3.51-4.91,5-15.84,15.19-27,30.4-32.9a85,85,0,0,1,65.18.56c18.83,7.74,28.4,22.37,28.48,42.81.13,31.3,0,62.6.1,93.9,0,3-.44,4.42-4,4.34-10.32-.25-20.65-.18-31,0-2.78,0-3.83-.7-3.72-3.61C1103,1576.91,1102.86,1571.6,1102.86,1565.18Zm-1.66-36.7c0-2.16-.1-4.32,0-6.48.14-2.32-.18-3.41-2.93-2.25-4.13,1.74-8.57,2.4-13,3.27-8.41,1.68-17.19,1.75-25.14,5.56-7.56,3.62-11.23,9.52-10.42,17s6,12.67,14.39,14.29C1086,1564.05,1101.19,1551.22,1101.2,1528.48Z"/><path class="cls-1" d="M1385.31,1544c-4.65,20.1-17.08,32.87-35.59,39.57a86.31,86.31,0,0,1-60.14,0c-18.1-6.56-30.43-19.53-36.9-37.52a92.15,92.15,0,0,1-.53-62.64c10.36-30,37.52-47.25,69.54-44.9,39.63,2.9,63,27.92,64.44,69.09.14,4-.12,8,.13,12,.19,3.06-.82,4.11-3.91,4-5.16-.23-10.32-.06-15.49-.06-25,0-49.94.07-74.92-.08-3.6,0-5.07.63-4.61,4.6,1.38,12,5.94,22,17.49,27.09,11.81,5.15,23.65,4.74,34.75-2.44a19,19,0,0,0,7-8.32c.84-1.86,1.82-2.78,4.11-2.61C1362.08,1542.54,1373.53,1543.2,1385.31,1544Zm-67.48-45.83c8.81,0,17.61-.08,26.41,0,2.92,0,4-.46,3.62-3.86-1.93-15.17-13.21-25.4-28.69-25.61-16.29-.22-29.56,10.71-31.66,25.89-.43,3.06.7,3.62,3.42,3.58C1299.9,1498.05,1308.87,1498.13,1317.83,1498.13Z"/><path class="cls-1" d="M311.87,1523.45c-15.15,0-30.29.07-45.44-.07-3.23,0-4.32.74-4,4.19,2.79,28.86,27,34.54,45.38,28.69a22,22,0,0,0,13.7-11.61c1.26-2.63,2.84-3.11,5.44-2.9,10,.77,19.91,1.54,29.89,1.93,3.68.14,3.51,1.46,2.69,4.24-4.24,14.35-13,25.26-26.26,31.75-25.44,12.46-51.38,12.59-76.8,0-14.49-7.21-23.85-19.57-29-34.76a93.1,93.1,0,0,1-.54-60.28c10-30.49,37.28-48.39,69.65-46.16,39.37,2.71,63.61,28.12,64.61,67.77.11,4.49-.12,9,.17,13.47.21,3.23-1.08,3.86-4,3.84C342.17,1523.38,327,1523.45,311.87,1523.45ZM293,1498.13c8.47,0,17-.26,25.41.11,4.59.2,5.23-1.48,4.49-5.43-2.81-14.91-14.06-24.17-29.6-24.1s-27.81,10.47-30.44,25.47c-.56,3.17,0,4.08,3.23,4C275.1,1498,284.07,1498.13,293,1498.13Z"/><path class="cls-1" d="M733.78,1156.85c4.13-18,14.49-30.53,31.17-37.22,21.62-8.66,43.66-8.46,65.17.27,19,7.72,28.75,22.27,28.71,43.1q-.12,46.71.07,93.42c0,3.73-.89,4.77-4.65,4.65-9.64-.29-19.32-.33-29,0-4.17.15-5-1.36-4.77-5,.28-4.79.07-9.6.07-14.26-1-.58-1.41-.23-1.8.41-10.82,18-27.77,22.49-47.21,21.34a62.63,62.63,0,0,1-10.34-1.61c-18.52-4.25-30.79-17.73-32.29-35.33-1.93-22.66,6.33-37,25.93-44.91,7.6-3.08,15.6-4.56,23.69-5.63,9.39-1.25,18.82-2.26,28.17-3.76,4.9-.79,10.34-1.81,11.36-8,1.12-6.85-.79-12.91-6.62-17.19-11.42-8.4-32.45-3.57-38.67,9.1-1.54,3.13-3.11,3.79-6.4,3.44C755.68,1158.52,744.9,1157.77,733.78,1156.85ZM818.57,1194c-7.14,2.9-14.15,4.06-21.19,5.13-7.53,1.15-15.23,1.8-22,5.88-10.07,6.09-11,20.56-1.7,26.74,13.11,8.68,41.4,4.06,44.72-19.43C819.27,1206.49,818.57,1200.42,818.57,1194Z"/><path class="cls-1" d="M460.85,1565.79c-4.41,8-10.44,14.38-18.81,17.87-17.55,7.33-35.18,7-52-1.93-15.17-8.06-20.38-21.9-20-38.48.39-15.51,7-27.1,20.83-34.36,11.43-6,24-7.51,36.56-9,6.93-.84,13.87-1.65,20.74-2.84,4.93-.86,10.33-1.94,11.31-8.07,1.06-6.63-.8-12.6-6.36-16.85-11.42-8.73-32.75-4-39,9-1.58,3.23-3.26,3.64-6.45,3.31-10.72-1.1-21.48-1.85-32.57-2.76,4.58-19.48,16.26-32.21,34.51-38.55a86.48,86.48,0,0,1,59.65.65c20.63,7.59,30.84,22.74,30.86,44.63,0,30.81-.09,61.62.11,92.42,0,4.27-1.17,5.22-5.23,5.09-9.82-.31-19.65-.19-29.47,0-2.77,0-3.78-.69-3.67-3.58.22-5.28.06-10.57.06-15.86Zm-1.06-46.88c-9.08,3.54-18.61,4.65-28.1,6.06a39.66,39.66,0,0,0-14.6,4.66c-4.34,2.57-7.44,6-8.1,11.27-1.18,9.28,2.63,15.28,11.61,18.21,17.44,5.7,36.4-4.31,39-21.12C460.59,1531.86,459.79,1525.46,459.79,1518.91Z"/><path class="cls-1" d="M800.63,1541.66c5.15,0,10.31.13,15.46-.05,2.31-.09,3.51.38,4.27,2.82,2.36,7.47,7.82,11.77,15.26,13.61,8.27,2,16.53,2,24.46-1.37,5.16-2.21,9.08-5.79,9.13-11.94s-4.12-9.69-9.32-11.68c-10.14-3.89-21-4.89-31.55-7.19A114.45,114.45,0,0,1,806,1519c-29.28-13-28.66-52.68-5.94-68.34,13.8-9.51,29.28-12.25,45.48-12.27,11.7,0,23.24,1.38,34,6.43,14,6.53,23.09,17,26.74,32.17.77,3.2.86,5.07-3.56,5.17-9.64.23-19.28,1-28.9,1.78-2.81.23-4-.67-5-3.27-6.8-17.19-33.11-16.54-42.22-6.77-4.79,5.13-3.77,12.68,2.16,16.95,4,2.89,8.73,4,13.43,5.06,13.11,3,26.58,4.46,39.33,8.95,14,4.94,25.48,12.58,28.16,28.62,3,17.78-3.72,31.75-18,42-16.35,11.82-35.2,14.07-54.71,12.8-10.52-.68-20.78-2.72-30.29-7.53-14-7.1-23.09-18.12-26.6-33.61-.66-2.91.08-3.88,3-4,5.82-.14,11.64-.5,17.46-.76Z"/><path class="cls-1" d="M1171.46,1513c0-12.82-.11-25.64.08-38.46,0-3.14-.89-4-3.93-3.85-4.31.24-8.65-.05-13,.1-2.39.09-3.17-.73-3.13-3.12q.18-12.24,0-24.47c0-2.52,1-3.11,3.25-3,4.16.12,8.34-.22,12.48.11,3.68.29,4.39-1.16,4.31-4.52-.23-8.82,0-17.65-.15-26.47-.07-3,.76-4,3.88-4,11,.18,22,.15,33,0,2.82,0,3.76.8,3.71,3.66-.16,9,.06,18-.12,27-.07,3.18.74,4.41,4.12,4.28,6.49-.24,13,.08,19.48-.13,3.11-.1,4,1,3.91,4-.18,7.66-.16,15.32,0,23,.06,2.79-.76,3.79-3.65,3.71-6.82-.18-13.65,0-20.47-.11-2.64-.06-3.38.86-3.37,3.43.09,22.48-.1,45,.12,67.43.12,11.16,5.93,15.28,18.81,13,4.53-.8,5.2.71,5.85,4.37,1.28,7.2,3,14.31,4.57,21.45.46,2.08.7,3.7-2.21,4.45-13.62,3.52-27.24,4.5-40.86.32-16.5-5.08-26.25-17.93-26.56-35.18-.22-12.32,0-24.65,0-37Z"/><path class="cls-1" d="M934.7,1512.7c0-12.66-.13-25.32.08-38,.06-3.37-1-4.25-4.19-4.06-4.32.25-8.66,0-13,.1-2.19.06-2.89-.75-2.87-2.9q.13-12.48,0-25c0-2.34,1.07-2.78,3-2.73,3.83.08,7.69-.25,11.49.09,4.16.37,5.8-.61,5.56-5.29-.46-8.63,0-17.31-.2-26,0-2.83.79-3.7,3.63-3.67,11,.15,22,.17,33,0,3.13,0,4,1,3.91,4-.18,9,.05,18-.13,27-.06,3,.87,4,3.94,4,6.66-.2,13.33.07,20-.11,2.89-.08,3.7.94,3.64,3.74-.16,7.82-.14,15.65,0,23.48,0,2.58-.74,3.51-3.4,3.44-6.65-.16-13.33.19-20-.14-3.87-.19-4.2,1.5-4.18,4.67.11,21,0,42,.07,63,0,14.39,5.26,18.8,19.66,16.23,3.28-.59,4.33-.09,4.92,3.16,1.36,7.51,3.11,15,4.71,22.43.48,2.24.81,4-2.39,4.79-13.13,3.41-26.29,4.26-39.45.67-17.11-4.67-27.43-18-27.76-35.88-.24-12.32,0-24.64,0-37Z"/><path class="cls-1" d="M994.65,1187.92c0-12.49-.18-25,.1-37.47.09-3.91-1.13-4.82-4.74-4.54-4,.32-8-.07-12,.13-2.68.14-3.41-.83-3.36-3.42q.21-12,0-24c-.06-2.78,1.08-3.38,3.54-3.29,4,.15,8-.26,12,.12s4.65-1.19,4.55-4.75c-.25-8.82,0-17.66-.14-26.48-.05-2.77.69-3.75,3.59-3.71,11,.16,22,.21,33,0,3.53-.08,4.12,1.32,4,4.38-.16,8.33.27,16.67-.17,25-.26,4.82,1.5,5.85,5.86,5.6,6-.35,12,0,18-.14,2.86-.09,3.74.87,3.67,3.71-.16,7.82-.19,15.65,0,23.47.08,3-1.16,3.58-3.81,3.52-6.66-.15-13.33.07-20-.11-2.82-.08-3.68.8-3.66,3.64.11,22.31,0,44.63.12,67,.09,11.44,5.88,15.62,19,13.23,4.4-.79,4.93.65,5.55,4.15,1.28,7.2,3,14.31,4.57,21.45.49,2.24.78,3.94-2.41,4.76-12.8,3.3-25.6,4.19-38.48.88-17.72-4.55-28.36-17.8-28.72-36.1-.24-12.32-.05-24.65-.05-37Z"/><path class="cls-1" d="M520.76,1488.33c0-30.63.07-61.26-.09-91.89,0-3.73.89-4.77,4.65-4.67,10.64.28,21.3.21,31.95,0,3.06,0,3.9.74,3.9,3.86q-.15,93.13,0,186.27c0,3-.69,4-3.84,3.92-10.65-.21-21.31-.25-32,0-3.7.09-4.71-.84-4.69-4.63C520.84,1550.26,520.76,1519.29,520.76,1488.33Z"/><path class="cls-1" d="M918.63,1141c2.4-1.55,2.35-3.41,2.93-4.86,6.88-17.35,23.34-25.77,43.64-21.91a2.62,2.62,0,0,1,2.48,3c-.06,11,0,21.94,0,32.94-5.33-.53-10.26-1.24-15.21-1.46-19.6-.87-32.66,11.64-32.68,31.19,0,25.47-.08,50.94.08,76.4,0,3.59-.65,4.85-4.56,4.74-10.64-.31-21.3-.19-31.95,0-2.84,0-4.08-.38-4.07-3.71q.16-68.91,0-137.83c0-2.75.31-4.25,3.71-4.18q16,.33,32,0c3.36-.06,3.78,1.36,3.72,4.16C918.52,1126.43,918.63,1133.4,918.63,1141Z"/><path class="cls-2" d="M1262.41,789.07c-8.42.26-14.83-3.09-21.24-6.79a54.59,54.59,0,0,0-11.36-4.69c-5.6-1.73-11.44-2.69-17-4.54s-10.79-4.36-16.17-6.57a6.28,6.28,0,0,0-2.29-.8c-4.87.09-9.12-1.36-13.7-3.25-6.48-2.68-13.77-3.45-20.74-4.91-10.78-2.25-21.58-4.39-32.37-6.58a18.73,18.73,0,0,0-1.94-.44c-16.27-1.65-32.65-2.59-48.8-5.07-21.67-3.33-43.4-3.36-65.14-2.58-17.07.61-34.3,1.31-51,4.26-8.62,1.52-17.27,2.23-25.86,3.58-13.65,2.13-27.3,4.36-40.81,7.23-6.93,1.48-13.54,4.46-20.34,6.65-1.7.55-3.58.54-5.33,1-3.74.93-7.46,2-11.18,3-.32.09-.6.33-.91.4-6.11,1.53-12.32,2.77-18.32,4.65-5.3,1.66-10.37,4-15.55,6.1a7.12,7.12,0,0,1-1.83.68c-6.78.65-12.43,4-18.09,7.4a7.68,7.68,0,0,1-1.89.56c-5.63,1.53-11.38,2.73-16.85,4.7-3.95,1.42-7.54,3.86-11.28,5.85a8.46,8.46,0,0,1-1.29.75c-5.56,1.61-11.16,3.12-16.7,4.81-3.57,1.09-7.11,2.33-10.58,3.7-5,2-9.9,4.32-15,6.14-5.51,2-11.21,3.45-16.75,5.34s-11.12,4-16.66,6.09a22,22,0,0,1-2.23,1.11c-6.25,1.6-12.59,2.91-18.77,4.73-5.88,1.73-11.62,4-17.42,6a19.85,19.85,0,0,1-2.33.77c-7.34,1.53-14.79,2.66-22,4.65-6.2,1.72-12.14,4.4-18.2,6.65a4.29,4.29,0,0,1-1.39.49c-7.38-.11-14.31,1.73-21.34,3.89-4.7,1.44-10.3-.24-14.38,3.89a1.67,1.67,0,0,1-1,.27c-12.62,1.45-25.25,2.83-37.86,4.39-3.39.42-6.68,1.65-10.06,2.11-5.25.72-10.54,1.19-15.82,1.62-24.82,2-49.61,4.65-74.59,3.53-12.46-.56-24.94-.69-37.4-1.35-7.6-.39-15.2-1.22-22.75-2.22-5.66-.75-11.23-2.26-16.89-3.08-3.93-.58-8-.31-11.92-.88-3.71-.53-7.32-1.76-11-2.52a83.73,83.73,0,0,0-8.33-1.27c-3.7-.38-7.8.72-10.38-3.3-.26-.41-1.2-.48-1.85-.54-4.19-.38-8-.9-12.1-3.08-5.43-2.88-12.14-3.27-18.21-5-4.62-1.35-9.14-3.09-13.63-4.84q-7.44-2.91-14.74-6.18c-4.72-2.12-9.34-4.44-14-6.69-.74-.35-1.43-.82-2.19-1.13-3.88-1.62-7.92-2.93-11.64-4.86-6.91-3.58-13.67-7.47-20.42-11.34-1.88-1.07-3.5-2.6-5.31-3.8-5.59-3.72-11.3-7.27-16.8-11.13-2.71-1.89-4.94-4.48-7.6-6.46s-5.64-3.11-8-5.17c-6.63-5.73-13-11.76-19.5-17.66-4.66-4.22-9.45-8.3-14-12.65s-9.34-9-13.59-13.9c-7-8-13.86-16.19-20.41-24.6s-12.77-17-18.8-25.77c-3.43-5-6.1-10.49-9.25-15.68-4.58-7.55-9.38-15-13.86-22.58-1-1.71-1-4-1.78-7.1,2.19.71,3.56.78,4.37,1.48,8.51,7.46,16.93,15,25.36,22.57,1.63,1.46,3.74,2.75,4.61,4.61,1.22,2.61,3.23,2.57,5.37,3.37a15.12,15.12,0,0,1,6.11,4.82c5.27,6.74,13.11,9.84,19.79,14.58,4.21,3,8.29,6.17,12.55,9.07,5.13,3.47,10.42,6.69,15.58,10.12,4.9,3.26,9.66,6.75,14.61,9.94,2.93,1.89,6.13,3.37,9.19,5.07,4.09,2.28,8.05,4.83,12.27,6.83s8.87,3.41,13.21,5.33a50.17,50.17,0,0,1,9.43,5,39.77,39.77,0,0,0,14.37,7c4.17,1,7.84,4,11.83,5.86,3.35,1.57,6.8,3,10.29,4.22,4.82,1.72,9.74,3.14,14.56,4.83a22.66,22.66,0,0,1,4.09,2.24c.54.33.88,1.15,1.43,1.29,6.1,1.54,12.3,2.76,18.34,4.52,5.62,1.63,11.08,3.81,16.6,5.76a16.83,16.83,0,0,0,1.81.79c7,1.55,14.09,2.62,20.89,4.72,7.52,2.31,15.58,2.46,22.72,4.9,5.8,2,11.74,1.24,17,3.14,12.39,4.5,25.41,1.63,37.66,4.16,27.74,5.75,55.5,2.27,83.25,2.35,11.59-5,24.12-1,35.76-3.63,8.86-2,18.1-1.85,26.43-4.38,5.29-1.61,10.51-2.18,15.74-3.36,10.59-2.38,21.2-4.72,31.64-7.64,6.09-1.71,11.82-4.66,17.83-6.72,2.46-.84,5.39-.37,7.81-1.28,5.14-2,10-4.71,15.15-6.57s10.69-2.71,15.86-4.57c5-1.78,9.64-4.33,14.48-6.48a100.76,100.76,0,0,1,10-4.16c5.53-1.78,11.26-2.93,16.73-4.86,4.6-1.62,8.93-4,13.43-6,1.33-.58,2.84-.76,4.22-1.24,3.11-1.09,6.2-2.25,9.3-3.38a14.2,14.2,0,0,1,1.39-.47c5.57-1.42,11.26-2.46,16.66-4.34,5-1.73,9.68-4.35,14.51-6.56a9.73,9.73,0,0,1,1.46-.36c5.92-1.55,12-2.76,17.72-4.75,5-1.73,9.7-4.35,14.55-6.55a11,11,0,0,1,1.92-.45c6.26-1.44,14-1.1,18.4-4.8,5.15-4.39,12-1.09,16.17-6.14.74-.9,2.75-.85,4.21-1,3.44-.42,7.36.65,9.63-3.27.06-.11.28-.15.44-.2,5.88-1.54,11.77-3,17.62-4.65,7.1-2,14.15-4.18,21.22-6.29a13.2,13.2,0,0,1,1.41-.5c8.28-1.53,16.58-2.94,24.82-4.63,2.25-.47,4.3-1.84,6.49-2.69a16.3,16.3,0,0,1,3.23-.83c4.51-.76,9.46.94,13.33-3.53,1.13-1.31,4.78-.4,7.27-.57,4.33-.29,8.78.61,12.6-2.9,1.29-1.19,4.13-.77,6.27-.94,4.66-.36,9.13-.11,13.69-2.69,3.29-1.85,8.15-.71,12.21-1.42,29.94-5.28,60.15-4.1,90.32-3.91,6.49,0,13,.12,19.46.78a237.45,237.45,0,0,1,26.35,3.79c6.66,1.46,13,4.42,19.5,6.57,1.55.52,3.35.25,4.92.71,3,.89,6,2.09,9,3.07,1.24.4,2.59.46,3.82.88,2.26.77,4.5,1.63,6.7,2.57,3.34,1.43,6.62,3,10,4.43,3.59,1.52,7.33,2.73,10.83,4.42,6.77,3.29,13.43,6.8,20.12,10.25a85.67,85.67,0,0,1,8,4.38c10.29,6.82,20.61,13.59,30.68,20.72,7,5,13.79,10.45,20.47,15.93,1.09.9,1.65,3,1.66,4.55C1262.46,761.52,1262.41,775.14,1262.41,789.07Z"/><path class="cls-3" d="M282.61,744c7-5.89,13.83-11.48,20.46-17.33,3-2.65,5.46-5.91,8.34-8.72,5-4.93,10.5-9.48,15.27-14.66,7.06-7.65,13.79-15.62,20.46-23.62,6.07-7.27,12.1-14.6,17.71-22.22,3.19-4.32,5.43-9.32,8.23-13.93,5.11-8.45,10.42-16.79,15.44-25.29a51.89,51.89,0,0,0,3.87-8.87c1.76-4.9,3.18-9.93,4.93-14.83,1.89-5.29,4.12-10.46,5.95-15.77.69-2,.7-4.23,1-6.36,1-7,2.48-14.05,3-21.13a90.5,90.5,0,0,0-.68-15.76c-.46-4.61-1.59-9.14-2.11-13.74-.14-1.23.86-2.59,1.57-4.53,9,14.11,12.05,28.9,12.15,44,.08,12-1.45,24.11-3.28,36-.91,6-4.34,11.5-6.15,17.37-1.19,3.84-2.68,7.68-3.73,11.35-2.33,8.16-7.07,14.57-11.33,21.48-3.17,5.13-5.71,10.63-8.61,15.92-2.69,4.92-5.2,10-8.31,14.63-4,6-8.68,11.62-12.92,17.51-3.44,4.76-6.54,9.76-10,14.48a86.17,86.17,0,0,1-6.3,6.92c2.4,4.45,6.61,5,10.82,6.63,12.2,4.63,25.33,2.45,37.55,6.22a27.49,27.49,0,0,0,7.92.77c28.3.12,56.62.63,84.91,0,13.14-.28,26.25-2.6,39.33-4.27a203.93,203.93,0,0,0,20.4-3.62c8.25-1.9,16.38-4.36,24.58-6.5,1.43-.37,3-.23,4.43-.55,4.61-1,9.19-2.18,13.8-3.16,2.1-.44,4.33-.35,6.37-.94a63.57,63.57,0,0,0,6.87-2.82,7.64,7.64,0,0,1,1.74-.78c5.29-.58,10.27-.87,15.47-3.61,5.82-3.07,13.2-3.07,19.81-4.77,4.09-1,8-2.83,12-4.15,7.42-2.45,14.94-4.59,22.27-7.25,5.26-1.9,10.21-4.64,15.43-6.64,4.93-1.9,10.13-3.09,15-5,4.45-1.75,8.67-4.08,13-6.16,3.13-1.51,6.19-3.22,9.42-4.49,4.26-1.68,8.74-2.8,13-4.55,4.7-1.94,9.22-4.32,13.81-6.51.29-.15.53-.45.84-.53,5.73-1.56,11.49-3,17.2-4.67a22.16,22.16,0,0,0,4.16-1.95c.84-.45,1.58-1.55,2.38-1.56,4.55-.07,8.38-2.17,12.53-3.58,7-2.37,14.68-3,22-4.68,7.1-1.68,14.08-3.84,21.11-5.79a23.27,23.27,0,0,1,3.83-1.07c15.12-1.61,30.37-2.46,45.36-4.86,32.94-5.28,66.09-4.27,99-2.61,16.12.81,32.52,1.58,48.48,4.05,9.17,1.41,18.37,2.09,27.48,3.51,8.52,1.33,16.81,4.11,25.2,6.25.32.09.64.18,1,.24,8.54,1.49,17.14,2.71,25.6,4.56a91.13,91.13,0,0,1,18.18,6.29,16.53,16.53,0,0,1-4.1,1c-9.45-.06-18.91.54-28.14-2.85-3.44-1.27-7.56-.92-11.38-.91-28.13,0-56.27.17-84.41.27-12.46,4.65-25.6,2.91-38.42,4.19-9,.91-18.07,2-27,3.68-8.15,1.54-16.14,4-24.2,6-.47.12-.89.5-1.36.58-8.73,1.47-17.67,2.21-26.15,4.57-7.83,2.19-16.41,2.09-23.46,7-.85.59-2.25.39-3.4.55-1.47.21-3.44-.13-4.34.7-4.57,4.17-10.4,2.27-15.45,3.7s-10,4.18-15,6.36a12.36,12.36,0,0,1-1.35.6c-5.77,1.5-11.62,2.73-17.28,4.53s-11,4.13-16.51,6.24c-4.21,1.62-8.44,3.2-12.62,4.89-5.91,2.39-11.74,5-17.67,7.28-4.34,1.7-8.86,3-13.16,4.74-4.87,2-9.52,4.59-14.39,6.62-4.06,1.68-8.34,2.82-12.45,4.4-6.25,2.41-12.35,5.2-18.67,7.41-5.25,1.84-10.8,2.83-16.07,4.64-6.13,2.1-12.11,4.67-18.16,7a5.78,5.78,0,0,1-.94.32c-6.93,1.48-14,2.65-20.79,4.53-5.8,1.59-11.38,4-17.07,6a16.18,16.18,0,0,1-2.36.75c-8.19,1.62-16.46,2.91-24.56,4.91-7.63,1.88-15.05,4.57-22.61,6.76a23.19,23.19,0,0,1-5,.38c-5.53.34-11.31-.65-16.2,3.1a2.37,2.37,0,0,1-1.38.53c-11.23-.69-21.87,3.1-32.84,4.24-16,1.68-32,3.12-48,3.69-17.46.63-34.95.2-52.43.15-4.82,0-9.66-.09-14.46-.48-13-1-26.23-1-38.81-3.92-7.08-1.61-14.6-1.59-21.05-4.07-5.76-2.21-12-1.36-16.88-3.75s-10-2.43-14.9-3.81c-3.68-1-6.88-3.77-10.34-5.67a19.88,19.88,0,0,0-3.11-1.22c-4.55-1.6-9.24-2.9-13.59-4.92C285.56,748.44,284.4,746.08,282.61,744Z"/><path class="cls-4" d="M158.46,567.52,640.68,198.94c27.58,21.23,54.88,42.25,82.17,63.28l302.2,232.9c.65.51,1.28,1.32,2,1.44,2.18.35,4.53.92,6.53.37.89-.24,1.54-3,1.55-4.56.09-29.31.06-58.62.06-87.94v-6.27h84.27v6.32q0,79.2-.09,158.4a9.5,9.5,0,0,0,4.35,8.66c18.77,13.82,37.38,27.84,56,41.81,1.27.95,2.46,2,4.71,3.87-13-1.06-24.65-2-36.32-3-21.05-1.83-42.11-3.58-63.12-5.79-3.47-.37-7.13-2.38-10-4.54Q856,439.82,637.18,275.56c-7.52-5.64-8.58-5.66-16,.21Q554.87,328.36,488.56,381,372,473.5,255.32,565.93c-1.94,1.54-4.64,3-7,3-28.81.2-57.62.13-86.43.11a25.57,25.57,0,0,1-2.88-.3Z"/><path class="cls-5" d="M629,437.46H560.76V368.11H629Z"/><path class="cls-6" d="M705.9,437.48H637.6v-69.3h68.3Z"/><path class="cls-7" d="M629.2,443.16v69.12H560.73V443.16Z"/><path class="cls-8" d="M637.62,443h68.26v69.35H637.62Z"/></svg>