<svg width="50" height="50" viewBox="0 0 50 50" fill="none" xmlns="http://www.w3.org/2000/svg">
    <rect x="0.6" y="0.6" width="48.8" height="48.8" rx="24.4" fill="white" stroke="#234F68" stroke-width="1.2"/>
    <path d="M31.7062 28.7277C30.7031 27.5 29.9949 26.875 29.9949 23.4902C29.9949 20.3906 28.4121 19.2863 27.1093 18.75C26.9363 18.6789 26.7734 18.5156 26.7207 18.3379C26.4921 17.5602 25.8515 16.875 24.9999 16.875C24.1484 16.875 23.5074 17.5605 23.2812 18.3387C23.2285 18.5184 23.0656 18.6789 22.8925 18.75C21.5882 19.2871 20.007 20.3875 20.007 23.4902C20.005 26.875 19.2968 27.5 18.2937 28.7277C17.8781 29.2363 18.2421 30 18.9691 30H31.0347C31.7578 30 32.1195 29.234 31.7062 28.7277Z" stroke="#252B5C" stroke-width="1.25" stroke-linecap="round" stroke-linejoin="round"/>
    <path d="M27.5 30V30.625C27.5 31.288 27.2366 31.9239 26.7678 32.3928C26.2989 32.8616 25.663 33.125 25 33.125C24.337 33.125 23.7011 32.8616 23.2322 32.3928C22.7634 31.9239 22.5 31.288 22.5 30.625V30" stroke="#252B5C" stroke-width="1.25" stroke-linecap="round" stroke-linejoin="round"/>
    <circle cx="31" cy="16" r="6" fill="white"/>
    <circle cx="31" cy="16" r="3" fill="#FD5F4A"/>
</svg>
