<svg width="18" height="18" viewBox="0 0 18 18" fill="none" xmlns="http://www.w3.org/2000/svg">
    <path d="M13.3441 10.1602C13.4905 10.1318 13.6418 10.1449 13.7811 10.198L16.6028 11.273C16.913 11.3912 17.118 11.6887 17.118 12.0206V14.6257C17.118 15.9554 15.9415 17.0528 14.5506 16.7507L14.5501 16.7506C12.3183 16.2644 8.14575 15.0243 5.21275 12.0913C2.39643 9.27497 1.46093 5.39767 1.14742 3.32068L13.3441 10.1602ZM13.3441 10.1602L10.6223 10.6876C8.95017 9.80914 7.95126 8.84334 7.33555 7.4395L7.85144 4.67249C7.87819 4.52901 7.86518 4.38095 7.81381 4.24433M13.3441 10.1602L7.81381 4.24433M7.81381 4.24433L6.75622 1.43136C6.63895 1.11944 6.34062 0.912891 6.00739 0.912891M7.81381 4.24433L6.00739 0.912891M6.00739 0.912891H3.28091M6.00739 0.912891H3.28091M3.28091 0.912891C2.02554 0.912891 0.94362 1.97401 1.14735 3.32017L3.28091 0.912891Z" stroke="#252B5C" stroke-width="1.6" stroke-linecap="round" stroke-linejoin="round"/>
</svg>
