<svg width="50" height="50" viewBox="0 0 50 50" fill="none" xmlns="http://www.w3.org/2000/svg">
    <rect width="50" height="50" rx="25" fill="#F5F4F8"/>
    <path fill-rule="evenodd" clip-rule="evenodd" d="M25.8088 21.0621C25.8088 20.2766 26.4456 19.6398 27.2311 19.6398C28.0165 19.6398 28.6533 20.2766 28.6533 21.0621C28.6533 21.8475 28.0165 22.4843 27.2311 22.4843C26.4456 22.4843 25.8088 21.8475 25.8088 21.0621ZM24.2931 21.7739L17.7199 21.7738C17.2781 21.7738 16.9199 21.4156 16.9199 20.9738C16.9199 20.532 17.2781 20.1738 17.7199 20.1738L24.3414 20.1739C24.7208 18.9382 25.871 18.0398 27.2311 18.0398C28.5909 18.0398 29.7409 18.9379 30.1205 20.1732L32.2976 20.173C32.7395 20.173 33.0977 20.5311 33.0977 20.973C33.0977 21.4148 32.7396 21.773 32.2978 21.773L30.1691 21.7732C29.8493 23.0992 28.6552 24.0843 27.2311 24.0843C25.8071 24.0843 24.6132 23.0995 24.2931 21.7739Z" fill="#252B5C"/>
    <path fill-rule="evenodd" clip-rule="evenodd" d="M24.2088 28.8843C24.2088 28.0988 23.572 27.462 22.7865 27.462C22.0011 27.462 21.3643 28.0988 21.3643 28.8843C21.3643 29.6697 22.0011 30.3065 22.7865 30.3065C23.572 30.3065 24.2088 29.6697 24.2088 28.8843ZM25.7245 29.5961L32.2977 29.596C32.7395 29.596 33.0977 29.2378 33.0977 28.796C33.0977 28.3542 32.7395 27.996 32.2976 27.996L25.6762 27.9961C25.2968 26.7604 24.1466 25.862 22.7865 25.862C21.4267 25.862 20.2767 26.7601 19.8971 27.9954L17.7199 27.9952C17.2781 27.9952 16.9199 28.3533 16.9199 28.7952C16.9198 29.237 17.278 29.5952 17.7198 29.5952L19.8485 29.5954C20.1683 30.9214 21.3624 31.9065 22.7865 31.9065C24.2105 31.9065 25.4044 30.9217 25.7245 29.5961Z" fill="#252B5C"/>
</svg>
