<svg width="55" height="56" viewBox="0 0 55 56" fill="none" xmlns="http://www.w3.org/2000/svg">
    <rect y="0.802948" width="54.9837" height="55.1971" rx="25" fill="#F5F4F8"/>
    <path d="M36.8992 26.3575C36.8778 26.261 36.8361 26.1703 36.7768 26.0914C36.7175 26.0126 36.6421 25.9474 36.5555 25.9004L34.5108 24.7619C34.4012 24.5388 34.2778 24.3228 34.1414 24.1151L34.1844 21.7692C34.1851 21.6708 34.1657 21.5733 34.1273 21.4828C34.0888 21.3923 34.0322 21.3107 33.961 21.2431C32.9429 20.3165 31.7389 19.6195 30.43 19.1991C30.336 19.1697 30.2369 19.1606 30.1391 19.1725C30.0414 19.1844 29.9473 19.217 29.863 19.2681L27.8612 20.4755C27.6121 20.4669 27.3715 20.4669 27.1224 20.4755L25.1206 19.2681C25.0364 19.217 24.9423 19.1844 24.8445 19.1725C24.7468 19.1606 24.6476 19.1697 24.5536 19.1991C23.243 19.6198 22.0385 20.32 21.0226 21.2517C20.9508 21.317 20.8936 21.3969 20.8551 21.4862C20.8166 21.5754 20.7975 21.6719 20.7993 21.7692L20.8422 24.1151C20.7048 24.3221 20.5845 24.5377 20.4642 24.7619L18.4195 25.9004C18.3342 25.9479 18.2601 26.0133 18.2023 26.0922C18.1445 26.1711 18.1043 26.2616 18.0845 26.3575C17.7923 27.7044 17.7923 29.0986 18.0845 30.4455C18.1058 30.5419 18.1475 30.6327 18.2068 30.7115C18.2661 30.7904 18.3416 30.8555 18.4281 30.9026L20.4728 32.041C20.5824 32.2641 20.7058 32.4802 20.8422 32.6879L20.7993 35.0337C20.7985 35.1321 20.8179 35.2296 20.8563 35.3202C20.8948 35.4107 20.9514 35.4923 21.0226 35.5598C22.0407 36.4865 23.2447 37.1835 24.5536 37.6039C24.6476 37.6333 24.7468 37.6423 24.8445 37.6304C24.9423 37.6186 25.0364 37.586 25.1206 37.5349L27.1224 36.3274H27.8612L29.8716 37.5349C29.9761 37.6038 30.0987 37.6399 30.2238 37.6384C30.2937 37.6353 30.3629 37.6237 30.43 37.6039C31.7406 37.1831 32.9451 36.4829 33.961 35.5512C34.0329 35.486 34.09 35.406 34.1285 35.3168C34.167 35.2275 34.1861 35.131 34.1844 35.0337L34.1414 32.6879C34.2789 32.4809 34.3991 32.2653 34.5194 32.041L36.5641 30.9026C36.6494 30.855 36.7235 30.7896 36.7813 30.7107C36.8391 30.6318 36.8793 30.5414 36.8992 30.4455C37.1913 29.0986 37.1913 27.7044 36.8992 26.3575ZM35.6105 29.8504L33.6603 30.9371C33.5366 31.0093 33.4377 31.1176 33.3768 31.2476C33.2354 31.5415 33.0717 31.8241 32.8871 32.0928C32.8087 32.2133 32.7669 32.3542 32.7668 32.4981L32.8012 34.7319C32.0615 35.3641 31.2147 35.8578 30.3011 36.1894L28.3853 35.0337C28.2784 34.9712 28.1568 34.9385 28.0331 34.9389H27.9815C27.6556 34.9648 27.3281 34.9648 27.0021 34.9389C26.8613 34.9312 26.7211 34.9641 26.5983 35.0337L24.6825 36.1894C23.77 35.8594 22.9234 35.3688 22.1825 34.7405L22.2168 32.4981C22.2168 32.3542 22.175 32.2133 22.0965 32.0928C21.9151 31.8221 21.7515 31.5398 21.6068 31.2476C21.5434 31.1193 21.4451 31.0117 21.3233 30.9371L19.3731 29.8504C19.2013 28.8922 19.2013 27.9108 19.3731 26.9525L21.3233 25.8659C21.4471 25.7937 21.5459 25.6854 21.6068 25.5554C21.7482 25.2614 21.9119 24.9788 22.0965 24.7102C22.175 24.5896 22.2168 24.4488 22.2168 24.3048L22.1825 22.0711C22.9221 21.4388 23.7689 20.9451 24.6825 20.6135L26.5983 21.7692C26.7208 21.8398 26.8612 21.8728 27.0021 21.8641C27.3281 21.8382 27.6556 21.8382 27.9815 21.8641C28.1224 21.8718 28.2625 21.8389 28.3853 21.7692L30.3011 20.6135C31.2136 20.9435 32.0602 21.4342 32.8012 22.0624L32.7668 24.3048C32.7669 24.4488 32.8087 24.5896 32.8871 24.7102C33.0686 24.9808 33.2322 25.2632 33.3768 25.5554C33.4402 25.6836 33.5385 25.7913 33.6603 25.8659L35.6105 26.9525C35.7824 27.9108 35.7824 28.8922 35.6105 29.8504ZM27.4918 23.5717C26.5403 23.5717 25.6101 23.855 24.8189 24.3857C24.0277 24.9164 23.4111 25.6707 23.047 26.5532C22.6828 27.4357 22.5875 28.4068 22.7732 29.3437C22.9588 30.2806 23.417 31.1412 24.0899 31.8166C24.7627 32.4921 25.62 32.9521 26.5532 33.1384C27.4865 33.3248 28.4538 33.2291 29.3329 32.8636C30.212 32.498 30.9634 31.879 31.4921 31.0847C32.0207 30.2905 32.3029 29.3567 32.3029 28.4015C32.3029 27.1205 31.796 25.8921 30.8938 24.9863C29.9915 24.0806 28.7678 23.5717 27.4918 23.5717ZM27.4918 31.8513C26.8121 31.8513 26.1477 31.649 25.5826 31.2699C25.0175 30.8908 24.577 30.352 24.3169 29.7217C24.0568 29.0913 23.9888 28.3976 24.1214 27.7284C24.254 27.0592 24.5813 26.4446 25.0619 25.9621C25.5425 25.4796 26.1548 25.1511 26.8214 25.0179C27.488 24.8848 28.179 24.9531 28.8069 25.2143C29.4348 25.4754 29.9715 25.9175 30.3491 26.4849C30.7267 27.0522 30.9283 27.7192 30.9283 28.4015C30.9283 29.3164 30.5662 30.1939 29.9218 30.8409C29.2773 31.4878 28.4032 31.8513 27.4918 31.8513Z" fill="#234F68"/>
</svg>

