<svg width="19" height="18" viewBox="0 0 19 18" fill="none" xmlns="http://www.w3.org/2000/svg">
    <path d="M13.4598 10.1602C13.6062 10.1318 13.7576 10.1449 13.8969 10.198L16.7186 11.273C17.0287 11.3912 17.2337 11.6887 17.2337 12.0206V14.6257C17.2337 15.9554 16.0573 17.0528 14.6663 16.7507L14.6658 16.7506C12.434 16.2644 8.26147 15.0243 5.32847 12.0913C2.51215 9.27497 1.57665 5.39767 1.26315 3.32068L13.4598 10.1602ZM13.4598 10.1602L10.738 10.6876C9.06589 9.80914 8.06698 8.84334 7.45127 7.4395L7.96716 4.67249C7.99391 4.52901 7.9809 4.38095 7.92953 4.24433M13.4598 10.1602L7.92953 4.24433M7.92953 4.24433L6.87194 1.43136C6.75467 1.11944 6.45634 0.912891 6.12312 0.912891M7.92953 4.24433L6.12312 0.912891M6.12312 0.912891H3.39664M6.12312 0.912891H3.39664M3.39664 0.912891C2.14126 0.912891 1.05934 1.97401 1.26307 3.32017L3.39664 0.912891Z" stroke="#252B5C" stroke-width="1.6" stroke-linecap="round" stroke-linejoin="round"/>
</svg>
