<svg width="20" height="20" viewBox="0 0 21 20" fill="none" xmlns="http://www.w3.org/2000/svg">
    <path d="M6.70573 5.83333H13.3724M17.5391 5.83333H13.3724H17.5391ZM2.53906 5.83333H6.70573H2.53906ZM6.70573 5.83333V3C6.70573 2.86739 6.75841 2.74021 6.85218 2.64645C6.94594 2.55268 7.07312 2.5 7.20573 2.5H12.8724C13.005 2.5 13.1322 2.55268 13.2259 2.64645C13.3197 2.74021 13.3724 2.86739 13.3724 3V5.83333H6.70573Z" stroke="#252B5C" stroke-width="1.6" stroke-linecap="round" stroke-linejoin="round"/>
    <path d="M15.8722 6V17C15.8722 17.1326 15.8196 17.2598 15.7258 17.3536C15.632 17.4473 13.6715 17.5 13.5389 17.5H7.03888C6.90627 17.5 4.44578 17.4473 4.35201 17.3536C4.25824 17.2598 4.20557 17.1326 4.20557 17V6" stroke="#252B5C" stroke-width="1.6" stroke-linecap="round" stroke-linejoin="round"/>
</svg>
